<svg width="1024" height="1024" viewBox="0 0 1024 1024" fill="none" xmlns="http://www.w3.org/2000/svg">
<rect x="130" y="115" width="765" height="811" rx="100" fill="#969696" stroke="black" stroke-width="40"/>
<mask id="path-2-inside-1_32_120" fill="white">
<path d="M218 241C218 229.954 226.954 221 238 221H779C790.046 221 799 229.954 799 241V479C799 570.679 724.679 645 633 645H384C292.321 645 218 570.679 218 479V241Z"/>
</mask>
<path d="M218 241C218 229.954 226.954 221 238 221H779C790.046 221 799 229.954 799 241V479C799 570.679 724.679 645 633 645H384C292.321 645 218 570.679 218 479V241Z" fill="white" stroke="black" stroke-width="80" mask="url(#path-2-inside-1_32_120)"/>
<path d="M769 452L693.047 551.315L536 559" stroke="#343434" stroke-width="33"/>
<circle cx="520" cy="559" r="39" fill="#343434"/>
<rect x="320" y="336" width="71" height="124" rx="20" fill="#343434"/>
<rect x="614" y="336" width="71" height="124" rx="20" fill="#343434"/>
</svg>
